<?xml version="1.0" standalone="no"?>
<!DOCTYPE svg PUBLIC "-//W3C//DTD SVG 20010904//EN"
 "http://www.w3.org/TR/2001/REC-SVG-20010904/DTD/svg10.dtd">
<svg version="1.0" xmlns="http://www.w3.org/2000/svg"
 width="1050.000000pt" height="585.000000pt" viewBox="0 0 1050.000000 585.000000"
 preserveAspectRatio="xMidYMid meet">

<g transform="translate(0.000000,585.000000) scale(0.100000,-0.100000)"
fill="#000000" stroke="none">
<path d="M1 4973 c1 -483 4 -868 6 -856 11 55 69 66 366 70 165 3 247 0 247
-7 0 -5 17 -10 38 -10 39 0 82 -31 82 -58 0 -7 6 -11 12 -10 17 4 25 -510 9
-540 -6 -11 -13 -34 -16 -52 -9 -50 -22 -67 -57 -78 -36 -12 -195 -16 -444
-14 -153 2 -163 3 -197 26 -19 13 -38 22 -41 18 -3 -3 -6 -209 -6 -459 l0
-454 23 13 c16 9 100 13 327 13 341 0 351 -2 364 -66 3 -17 6 -163 6 -323 0
-359 8 -338 -137 -347 -54 -3 -199 -4 -322 -3 -193 3 -227 6 -242 20 -18 17
-19 -8 -19 -919 l0 -937 1494 0 1495 0 3 302 c3 264 6 307 21 333 37 64 72 95
132 116 54 19 84 21 305 23 263 1 368 -10 405 -45 11 -10 32 -29 47 -41 42
-34 52 -124 53 -431 l0 -257 3273 0 3272 0 0 1185 c0 1124 -1 1184 -17 1178
-10 -3 -22 -10 -28 -14 -31 -23 -553 -18 -638 7 -35 11 -40 42 -39 263 0 126
-3 206 -8 191 -6 -17 -8 -1 -8 55 0 53 2 73 8 60 6 -14 9 1 10 50 0 40 6 77
14 87 17 23 59 38 109 38 31 0 38 3 27 10 -12 8 -11 10 8 10 12 0 22 -4 22
-10 0 -13 137 -13 145 0 8 12 255 14 255 1 0 -5 23 -12 52 -15 28 -4 60 -12
70 -17 17 -9 18 37 18 1381 l0 1390 -1071 0 c-1009 0 -1071 -1 -1065 -17 4
-10 9 -67 12 -128 3 -60 7 -114 8 -120 2 -5 0 -95 -5 -199 -7 -159 -11 -192
-26 -208 -38 -42 -56 -44 -365 -44 l-297 1 -30 29 -30 29 -4 171 c-3 94 -9
199 -14 232 -6 42 -5 60 2 58 6 -3 9 19 7 60 -2 35 1 80 6 100 l10 36 -775 0
-776 0 6 -47 c27 -214 14 -564 -23 -625 -11 -18 -20 -43 -20 -55 0 -13 -5 -23
-12 -23 -7 0 -23 -11 -37 -24 -47 -45 -277 -65 -526 -47 -206 16 -222 20 -277
79 -40 43 -47 57 -57 119 -13 74 -9 513 4 586 l7 37 -2576 0 -2576 0 1 -877z
m4157 -171 c138 -3 137 -1 146 -227 7 -176 7 -179 33 -203 15 -13 36 -24 47
-24 30 0 116 41 122 57 8 21 74 60 133 80 44 14 72 17 145 12 110 -8 152 -19
197 -52 19 -14 47 -33 63 -42 43 -26 78 -62 71 -73 -3 -6 1 -10 10 -10 9 0 29
-10 46 -22 27 -20 33 -21 62 -9 18 7 44 16 60 18 15 3 27 11 27 18 0 11 29 40
125 124 28 24 60 38 172 71 30 9 74 11 146 7 89 -6 114 -12 178 -40 41 -19 88
-46 104 -59 17 -14 44 -32 60 -41 17 -8 38 -24 49 -36 15 -17 22 -18 40 -9 11
7 28 12 36 13 8 0 16 9 18 20 6 37 33 85 55 99 14 9 69 16 159 21 115 5 142 3
168 -10 17 -9 36 -13 42 -9 6 4 39 13 72 20 155 33 257 6 337 -89 27 -32 49
-64 49 -71 0 -13 58 -93 95 -131 20 -20 32 -20 600 -25 l580 -5 5 -632 5 -632
26 -28 c15 -15 30 -35 35 -44 5 -9 51 -53 102 -98 137 -120 182 -164 182 -177
0 -10 -145 -74 -168 -74 -16 0 -101 -40 -107 -50 -3 -6 -19 -10 -34 -10 -26 0
-29 -4 -35 -46 -3 -26 -6 -163 -6 -305 0 -141 -3 -264 -6 -273 -5 -14 -43 -16
-325 -16 l-319 0 0 -37 c-1 -79 -8 -136 -18 -142 -5 -3 -15 -31 -22 -61 -8
-30 -22 -64 -32 -76 -10 -11 -18 -26 -18 -32 0 -7 -4 -12 -10 -12 -5 0 -10 -7
-10 -16 0 -8 -4 -13 -9 -9 -5 3 -36 -19 -67 -49 -50 -47 -66 -56 -116 -65 -32
-5 -68 -17 -80 -26 -17 -11 -50 -15 -141 -15 -65 0 -126 4 -135 9 -9 5 -116
12 -237 16 -120 4 -228 11 -240 16 -11 6 -31 16 -45 24 -37 22 -73 18 -137
-13 -54 -25 -67 -27 -184 -27 -133 0 -123 -2 -254 63 l-50 25 -47 -22 c-26
-11 -51 -21 -56 -21 -5 0 -15 -6 -21 -14 -7 -8 -28 -17 -49 -21 -20 -3 -48
-13 -61 -22 -18 -12 -47 -14 -135 -11 -110 3 -112 4 -206 51 -52 27 -117 57
-145 68 -50 19 -50 19 -75 -1 -14 -11 -35 -25 -47 -30 -13 -5 -23 -14 -23 -20
0 -27 -70 -40 -207 -40 -124 0 -142 3 -178 23 -23 13 -47 37 -57 57 -20 41
-37 149 -38 235 0 33 -7 73 -15 89 -8 15 -12 39 -9 52 5 19 1 26 -20 34 -35
13 -181 21 -231 12 -38 -7 -40 -9 -53 -62 -20 -82 -30 -160 -24 -203 8 -65
-17 -147 -57 -188 -30 -29 -48 -37 -102 -47 -146 -26 -290 -3 -317 51 -9 18
-24 28 -48 33 -52 10 -157 -1 -185 -19 -13 -8 -46 -18 -74 -22 -27 -4 -58 -14
-69 -23 -16 -15 -54 -17 -297 -20 l-279 -3 -17 -30 c-37 -62 -146 -80 -203
-33 -47 40 -63 79 -57 135 5 42 2 52 -23 84 -66 83 -106 218 -93 314 l6 41
-202 0 -201 0 0 1195 0 1195 333 0 332 0 47 211 c26 116 48 212 50 214 2 1 73
-11 159 -28 86 -16 163 -27 171 -24 11 4 17 31 21 99 6 87 9 95 37 121 l30 27
193 0 c211 0 223 -3 247 -59 7 -17 21 -33 31 -36 10 -4 22 -17 25 -31 5 -20
12 -24 44 -24 35 0 38 3 54 43 9 23 16 47 16 53 0 6 10 20 23 32 22 20 75 28
177 26 19 0 77 -1 128 -2z"/>
<path d="M2892 4423 c-8 -32 -24 -106 -48 -220 -4 -23 -4 -23 128 -22 73 1
125 3 115 6 -15 4 -13 8 12 33 41 42 57 171 24 189 -21 10 -120 36 -180 46
l-42 7 -9 -39z"/>
<path d="M2208 4023 c-17 -4 -18 -62 -18 -1038 l0 -1033 23 -6 c12 -3 81 -6
152 -6 l130 0 55 56 c31 31 81 68 117 86 35 17 67 36 72 42 5 6 11 103 12 215
3 229 5 223 -74 236 -67 12 -287 62 -293 68 -3 2 5 49 16 103 12 55 37 171 55
259 19 88 43 203 55 255 11 52 28 129 36 170 9 41 25 116 35 165 24 110 89
426 89 431 0 6 -441 3 -462 -3z"/>
<path d="M2806 4018 c-9 -29 -48 -207 -93 -423 -14 -66 -31 -147 -38 -180 -7
-33 -22 -105 -34 -160 -31 -143 -50 -231 -67 -303 -9 -35 -19 -87 -24 -115 -4
-29 -11 -63 -15 -77 -6 -25 -4 -26 82 -43 48 -10 96 -23 105 -28 28 -14 60
-11 82 9 39 34 116 55 235 63 232 15 350 -2 487 -68 71 -34 95 -50 104 -72 6
-16 20 -31 30 -34 10 -3 28 -23 39 -44 25 -50 51 -67 126 -84 68 -14 53 -13
360 -23 127 -4 244 -12 260 -17 32 -9 80 -7 92 4 3 4 12 2 20 -5 27 -22 35 7
34 115 -2 92 1 109 23 153 14 27 47 71 75 98 40 40 59 51 98 57 72 12 135 10
163 -4 14 -7 46 -21 71 -30 51 -19 104 -77 120 -130 5 -18 8 -94 7 -169 -4
-165 1 -176 73 -158 24 6 49 12 54 13 6 1 24 12 40 23 17 11 48 25 70 32 22 6
60 16 85 23 48 14 222 17 279 6 18 -3 44 -13 56 -21 12 -8 47 -17 78 -20 74
-6 83 5 92 119 7 79 11 94 38 127 40 50 84 62 230 60 152 -2 188 -16 201 -80
6 -29 13 -41 22 -38 18 7 34 -25 34 -66 0 -65 16 -75 132 -77 142 -3 240 -17
313 -45 55 -21 119 -20 220 4 144 34 336 21 470 -30 42 -17 55 -19 60 -11 2 5
25 105 50 222 25 118 57 264 70 324 57 260 95 443 95 458 0 9 -8 18 -17 21
-22 7 -374 81 -508 107 -55 11 -113 23 -130 27 -51 13 -75 4 -75 -26 0 -20
-10 -34 -35 -51 -34 -23 -40 -23 -177 -19 -123 4 -143 7 -152 22 -61 104 -76
107 -149 32 l-54 -56 -136 0 c-142 0 -182 9 -192 42 -4 10 -11 18 -16 18 -5 0
-9 9 -9 20 0 11 -6 35 -14 53 -19 47 -57 47 -138 0 -34 -20 -74 -47 -89 -60
-14 -13 -32 -23 -41 -23 -9 0 -18 -6 -21 -13 -13 -35 -262 -69 -339 -48 -24 7
-46 12 -51 11 -15 -1 -147 71 -147 80 0 6 -5 10 -11 10 -16 0 -59 48 -59 65 0
7 -13 16 -29 20 -16 3 -35 13 -42 21 -22 26 -68 17 -109 -23 -145 -140 -223
-173 -408 -174 -63 0 -119 4 -125 9 -7 5 -30 12 -53 16 -63 9 -126 42 -157 81
-25 32 -32 35 -75 33 -50 -2 -58 -7 -82 -53 -28 -54 -60 -64 -237 -71 -88 -4
-173 -4 -189 0 -15 4 -45 26 -66 48 -32 35 -42 40 -81 40 -39 1 -50 -4 -88
-40 l-43 -42 -96 0 c-160 1 -280 16 -303 38 -30 30 -39 92 -41 272 -1 139 -4
169 -19 190 -9 13 -17 34 -17 46 0 29 -22 34 -163 34 -86 0 -119 -3 -121 -12z"/>
<path d="M7268 4020 c-20 -12 -55 -117 -61 -185 -2 -27 -1 -74 2 -104 l6 -54
55 -18 c30 -9 123 -32 205 -49 83 -18 177 -38 210 -45 33 -8 131 -28 218 -46
150 -30 157 -33 157 -56 0 -13 -16 -94 -34 -181 -53 -238 -124 -570 -157 -732
-17 -80 -38 -181 -49 -225 -10 -44 -25 -114 -34 -155 -9 -41 -21 -93 -26 -115
-5 -22 -12 -57 -15 -78 l-6 -38 255 2 256 1 0 204 0 204 -25 0 c-27 0 -107
-20 -179 -44 -56 -19 -70 -14 -61 23 9 36 43 217 60 326 8 50 19 99 24 110 5
11 19 76 30 145 26 157 34 185 52 184 27 -3 44 -9 57 -22 24 -22 37 -8 44 49
7 57 0 848 -8 887 l-4 22 -478 0 c-291 0 -484 -4 -494 -10z"/>
<path d="M5728 4013 c6 -2 18 -2 25 0 6 3 1 5 -13 5 -14 0 -19 -2 -12 -5z"/>
<path d="M8156 2756 c-3 -32 -4 -62 -1 -67 4 -5 2 -9 -2 -9 -5 0 -14 -26 -21
-57 -8 -32 -16 -68 -19 -80 -4 -16 -1 -23 10 -23 9 0 22 -9 30 -21 12 -17 21
-19 51 -14 44 9 48 25 44 185 l-3 115 -30 -1 c-16 0 -35 6 -41 14 -8 12 -12 2
-18 -42z"/>
<path d="M8421 2653 l-1 -83 29 0 c33 0 40 8 51 55 8 35 -10 61 -47 67 -10 2
-21 12 -25 23 -3 11 -6 -17 -7 -62z"/>
<path d="M8440 2549 c0 -5 5 -7 10 -4 6 3 10 8 10 11 0 2 -4 4 -10 4 -5 0 -10
-5 -10 -11z"/>
<path d="M2668 1960 c-22 -18 -22 -19 -3 -19 11 0 27 3 36 7 14 6 15 9 4 19
-11 10 -18 8 -37 -7z"/>
<path d="M2540 1779 c0 -5 5 -7 10 -4 6 3 10 2 10 -3 0 -6 -7 -12 -15 -16 -29
-11 -12 -138 27 -211 30 -56 58 -73 122 -76 l58 -3 -1 118 c-3 182 -19 206
-136 206 -46 0 -75 -4 -75 -11z"/>
<path d="M2702 1420 c14 -4 32 -11 40 -15 7 -3 4 1 -6 9 -11 9 -29 16 -40 15
-17 -1 -16 -2 6 -9z"/>
<path d="M2596 1353 c-10 -10 -7 -50 5 -76 13 -28 58 -57 89 -57 40 0 90 36
90 65 0 2 -15 7 -32 10 -18 4 -58 20 -89 36 -31 15 -59 25 -63 22z"/>
<path d="M7903 5707 c-21 -18 -44 -36 -51 -42 -31 -24 -72 -75 -72 -89 1 -70
24 -192 40 -214 11 -13 20 -21 20 -17 0 5 8 1 18 -8 9 -8 29 -19 45 -22 15 -4
27 -11 27 -16 0 -5 13 -9 29 -9 15 0 43 -5 61 -11 21 -8 34 -8 39 -2 3 6 24
14 47 17 50 9 80 44 86 102 3 22 10 49 16 61 20 36 15 117 -9 147 -11 14 -17
26 -13 26 4 0 -2 10 -13 23 -11 12 -23 29 -26 38 -5 16 -71 33 -164 42 -35 4
-47 0 -80 -26z"/>
<path d="M8233 5535 c0 -38 2 -53 4 -32 2 20 2 52 0 70 -2 17 -4 1 -4 -38z"/>
<path d="M288 4006 c-47 -17 -97 -56 -97 -77 -1 -9 -7 -22 -15 -28 -8 -7 -17
-23 -20 -37 -8 -32 12 -188 25 -192 5 -2 9 -8 9 -13 0 -6 15 -26 34 -45 l33
-34 114 3 c126 4 155 14 166 55 3 15 12 33 20 40 7 7 13 22 13 33 0 10 5 19
10 19 7 0 8 29 4 83 -5 60 -13 93 -30 122 -46 79 -50 81 -144 83 -51 1 -100
-4 -122 -12z"/>
<path d="M600 3750 c0 -11 5 -20 10 -20 6 0 10 9 10 20 0 11 -4 20 -10 20 -5
0 -10 -9 -10 -20z"/>
<path d="M10128 3103 c12 -2 30 -2 40 0 9 3 -1 5 -23 4 -22 0 -30 -2 -17 -4z"/>
<path d="M10128 2939 c-3 -8 -18 -12 -39 -11 -47 3 -98 -32 -122 -83 -27 -56
-30 -234 -4 -259 9 -10 17 -15 17 -11 0 6 42 -36 75 -76 17 -21 20 -22 23 -6
3 14 15 17 83 17 90 0 119 11 163 61 28 31 30 39 36 148 5 85 4 119 -5 126 -6
6 -26 21 -43 35 -17 13 -28 28 -26 32 3 4 -12 10 -33 13 -57 9 -76 13 -99 20
-14 4 -23 2 -26 -6z"/>
<path d="M10100 2490 c20 -13 140 -13 140 0 0 6 -32 10 -77 10 -54 0 -73 -3
-63 -10z"/>
<path d="M120 2440 c-14 -26 -13 -50 3 -50 8 0 7 -4 -3 -10 -21 -13 -21 -389
0 -415 12 -14 38 -16 229 -12 119 2 224 7 233 11 15 7 17 32 18 235 0 197 -2
230 -16 241 -11 10 -71 14 -234 17 -208 2 -220 2 -230 -17z m459 -14 c9 -11 9
-16 0 -21 -6 -4 -15 -2 -19 5 -4 7 -25 16 -46 20 l-39 8 46 1 c29 1 51 -4 58
-13z"/>
</g>
</svg>
